<svg id="Layer_1" data-name="Layer 1" xmlns="http://www.w3.org/2000/svg" viewBox="0 0 1447 765.53"><defs><style>.cls-1,.cls-47,.cls-53,.cls-62,.cls-63,.cls-64{fill:none;}.cls-1,.cls-71{stroke:#900;}.cls-1,.cls-2,.cls-46,.cls-47,.cls-52,.cls-53,.cls-60,.cls-61,.cls-62,.cls-63,.cls-64,.cls-71{stroke-miterlimit:10;}.cls-1,.cls-64,.cls-71{stroke-width:0.5px;}.cls-2{fill:#dbdbdb;stroke:#000;stroke-dasharray:6;}.cls-3{fill:#6f00d1;}.cls-4{fill:#35006d;}.cls-22,.cls-5{font-size:18px;}.cls-14,.cls-32,.cls-42,.cls-5,.cls-71{fill:#fff;}.cls-14,.cls-22,.cls-23,.cls-28,.cls-32,.cls-42,.cls-5,.cls-72,.cls-75{font-family:MyriadPro-Regular, Myriad Pro;}.cls-6{letter-spacing:-0.01em;}.cls-7{letter-spacing:0em;}.cls-8{letter-spacing:0.01em;}.cls-9{letter-spacing:-0.01em;}.cls-10{letter-spacing:0.03em;}.cls-11{letter-spacing:0.01em;}.cls-12{letter-spacing:0.02em;}.cls-13{letter-spacing:0em;}.cls-14,.cls-23{font-size:10px;}.cls-15{letter-spacing:-0.01em;}.cls-16{letter-spacing:-0.01em;}.cls-17{letter-spacing:0em;}.cls-18{letter-spacing:0.01em;}.cls-19{letter-spacing:-0.01em;}.cls-20{letter-spacing:0.03em;}.cls-21{fill:#bbb9ef;}.cls-22,.cls-23{fill:#1f003f;}.cls-24{letter-spacing:0em;}.cls-25{letter-spacing:-0.01em;}.cls-26{letter-spacing:-0.01em;}.cls-27{letter-spacing:0.01em;}.cls-28,.cls-32{font-size:12px;}.cls-29{letter-spacing:-0.01em;}.cls-30,.cls-46{fill:#235a8c;}.cls-31{fill:#9fd6ff;}.cls-33{letter-spacing:0.01em;}.cls-34{letter-spacing:0em;}.cls-35{letter-spacing:-0.02em;}.cls-36{letter-spacing:-0.01em;}.cls-37{letter-spacing:-0.01em;}.cls-38{letter-spacing:0em;}.cls-39{letter-spacing:0.01em;}.cls-40{letter-spacing:-0.01em;}.cls-41{letter-spacing:0em;}.cls-42{font-size:36px;letter-spacing:-0.01em;}.cls-43{letter-spacing:0em;}.cls-44{letter-spacing:-0.01em;}.cls-45{letter-spacing:-0.01em;}.cls-46,.cls-52,.cls-60,.cls-61{stroke:#fff;stroke-width:3px;}.cls-47{stroke:#235a8c;}.cls-48,.cls-52{fill:#c90;}.cls-49{fill:#ffe49f;}.cls-50{letter-spacing:0em;}.cls-51{letter-spacing:0em;}.cls-53{stroke:#c90;}.cls-54{fill:#900;}.cls-55{fill:#919191;}.cls-56,.cls-60{fill:#a30052;}.cls-57,.cls-61{fill:#1b003d;}.cls-58{fill:#c1a4ff;}.cls-59{fill:#d0a4ff;}.cls-62{stroke:#a30052;}.cls-63{stroke:#1b003d;}.cls-64{stroke:#919191;}.cls-65{letter-spacing:0.01em;}.cls-66{letter-spacing:0em;}.cls-67{letter-spacing:-0.01em;}.cls-68{letter-spacing:0.01em;}.cls-69{letter-spacing:0em;}.cls-70{letter-spacing:-0.02em;}.cls-71{opacity:0.78;}.cls-72{font-size:24px;}.cls-73{letter-spacing:0em;}.cls-74{letter-spacing:-0.01em;}.cls-75{font-size:60px;}.cls-76{letter-spacing:0em;}.cls-77{letter-spacing:-0.01em;}</style></defs><line class="cls-1" x1="572.5" y1="659.03" x2="572.5" y2="727.53"/><line class="cls-1" x1="889.5" y1="658.03" x2="889.5" y2="726.53"/><line class="cls-1" x1="632.5" y1="614.03" x2="632.5" y2="686.53"/><line class="cls-1" x1="825.5" y1="614.03" x2="825.5" y2="687.03"/><line class="cls-1" x1="675.5" y1="664.03" x2="675.5" y2="698.53"/><line class="cls-1" x1="780.5" y1="664.03" x2="780.5" y2="698.53"/><line class="cls-1" x1="479.5" y1="658.03" x2="479.5" y2="726.53"/><line class="cls-1" x1="985.5" y1="657.03" x2="985.5" y2="725.53"/><line class="cls-1" x1="396.5" y1="619.03" x2="442" y2="619.03"/><line class="cls-1" x1="1016.5" y1="619.03" x2="1062" y2="619.03"/><line class="cls-1" x1="606" y1="599.03" x2="631" y2="599.03"/><line class="cls-1" x1="828" y1="596.03" x2="853" y2="596.03"/><line class="cls-1" x1="608" y1="686.03" x2="633" y2="686.03"/><line class="cls-1" x1="825.5" y1="687.03" x2="851" y2="687.03"/><line class="cls-1" x1="608" y1="698.03" x2="675.5" y2="698.03"/><line class="cls-1" x1="781" y1="699.03" x2="848.5" y2="699.03"/><rect class="cls-2" x="82.5" y="295.03" width="393" height="249"/><rect class="cls-3" x="653.42" y="92.99" width="172" height="52" rx="9.25"/><path class="cls-4" d="M973.17,132a8.75,8.75,0,0,1,8.75,8.75v33.5a8.76,8.76,0,0,1-8.75,8.75H819.67a8.76,8.76,0,0,1-8.75-8.75v-33.5a8.75,8.75,0,0,1,8.75-8.75h153.5m0-1H819.67a9.74,9.74,0,0,0-9.75,9.75v33.5a9.75,9.75,0,0,0,9.75,9.75h153.5a9.75,9.75,0,0,0,9.75-9.75v-33.5a9.74,9.74,0,0,0-9.75-9.75Z" transform="translate(-157 -38.47)"/><text class="cls-5" transform="translate(675.54 117.76)">Di<tspan class="cls-6" x="16.2" y="0">r</tspan><tspan class="cls-7" x="21.91" y="0">e</tspan><tspan class="cls-8" x="30.92" y="0">c</tspan><tspan class="cls-9" x="39.22" y="0">t</tspan><tspan x="45.07" y="0">o</tspan><tspan class="cls-10" x="54.95" y="0">r</tspan><tspan class="cls-7" x="61.29" y="0">y </tspan><tspan class="cls-11" x="73.58" y="0">S</tspan><tspan x="82.56" y="0">e</tspan><tspan class="cls-12" x="91.58" y="0">r</tspan><tspan x="97.92" y="0">vi</tspan><tspan class="cls-9" x="110.79" y="0">c</tspan><tspan class="cls-13" x="118.74" y="0">e</tspan></text><text class="cls-14" transform="translate(690.9 132.78)"><tspan class="cls-15">(</tspan><tspan x="2.73" y="0">ADIA Global Di</tspan><tspan class="cls-16" x="64.44" y="0">r</tspan><tspan class="cls-17" x="67.61" y="0">e</tspan><tspan class="cls-18" x="72.62" y="0">c</tspan><tspan class="cls-19" x="77.23" y="0">t</tspan><tspan x="80.48" y="0">o</tspan><tspan class="cls-20" x="85.97" y="0">r</tspan><tspan x="89.49" y="0">y)</tspan></text><rect class="cls-21" x="380.5" y="208.03" width="172" height="52" rx="9.25"/><path class="cls-4" d="M700.25,247a8.75,8.75,0,0,1,8.75,8.75v33.5a8.75,8.75,0,0,1-8.75,8.75H546.75a8.75,8.75,0,0,1-8.75-8.75v-33.5a8.75,8.75,0,0,1,8.75-8.75h153.5m0-1H546.75a9.74,9.74,0,0,0-9.75,9.75v33.5a9.74,9.74,0,0,0,9.75,9.75h153.5a9.74,9.74,0,0,0,9.75-9.75v-33.5a9.74,9.74,0,0,0-9.75-9.75Z" transform="translate(-157 -38.47)"/><text class="cls-22" transform="translate(402.62 232.8)">Di<tspan class="cls-6" x="16.2" y="0">r</tspan><tspan class="cls-7" x="21.91" y="0">e</tspan><tspan class="cls-8" x="30.92" y="0">c</tspan><tspan class="cls-9" x="39.22" y="0">t</tspan><tspan x="45.07" y="0">o</tspan><tspan class="cls-10" x="54.95" y="0">r</tspan><tspan class="cls-7" x="61.29" y="0">y </tspan><tspan class="cls-11" x="73.58" y="0">S</tspan><tspan x="82.56" y="0">e</tspan><tspan class="cls-12" x="91.58" y="0">r</tspan><tspan x="97.92" y="0">vi</tspan><tspan class="cls-9" x="110.79" y="0">c</tspan><tspan class="cls-13" x="118.74" y="0">e</tspan></text><text class="cls-23" transform="translate(413.98 247.82)"><tspan class="cls-15">(</tspan><tspan x="2.73" y="0">ADIA </tspan><tspan class="cls-24" x="26.14" y="0">R</tspan><tspan class="cls-17" x="31.56" y="0">e</tspan><tspan class="cls-25" x="36.57" y="0">g</tspan><tspan x="42.1" y="0">ional Di</tspan><tspan class="cls-26" x="73.78" y="0">r</tspan><tspan x="76.95" y="0">e</tspan><tspan class="cls-27" x="81.96" y="0">c</tspan><tspan class="cls-19" x="86.57" y="0">t</tspan><tspan x="89.82" y="0">o</tspan><tspan class="cls-20" x="95.31" y="0">r</tspan><tspan x="98.83" y="0">y)</tspan></text><rect class="cls-21" x="653.5" y="208.03" width="172" height="52" rx="9.25"/><path class="cls-4" d="M973.25,247a8.75,8.75,0,0,1,8.75,8.75v33.5a8.75,8.75,0,0,1-8.75,8.75H819.75a8.75,8.75,0,0,1-8.75-8.75v-33.5a8.75,8.75,0,0,1,8.75-8.75h153.5m0-1H819.75a9.74,9.74,0,0,0-9.75,9.75v33.5a9.74,9.74,0,0,0,9.75,9.75h153.5a9.74,9.74,0,0,0,9.75-9.75v-33.5a9.74,9.74,0,0,0-9.75-9.75Z" transform="translate(-157 -38.47)"/><text class="cls-22" transform="translate(675.62 232.8)">Di<tspan class="cls-6" x="16.2" y="0">r</tspan><tspan class="cls-7" x="21.91" y="0">e</tspan><tspan class="cls-8" x="30.92" y="0">c</tspan><tspan class="cls-9" x="39.22" y="0">t</tspan><tspan x="45.07" y="0">o</tspan><tspan class="cls-10" x="54.95" y="0">r</tspan><tspan class="cls-7" x="61.29" y="0">y </tspan><tspan class="cls-11" x="73.58" y="0">S</tspan><tspan x="82.56" y="0">e</tspan><tspan class="cls-12" x="91.58" y="0">r</tspan><tspan x="97.92" y="0">vi</tspan><tspan class="cls-9" x="110.79" y="0">c</tspan><tspan class="cls-13" x="118.74" y="0">e</tspan></text><text class="cls-23" transform="translate(686.98 247.82)"><tspan class="cls-15">(</tspan><tspan x="2.73" y="0">ADIA </tspan><tspan class="cls-24" x="26.14" y="0">R</tspan><tspan class="cls-17" x="31.56" y="0">e</tspan><tspan class="cls-25" x="36.57" y="0">g</tspan><tspan x="42.1" y="0">ional Di</tspan><tspan class="cls-26" x="73.78" y="0">r</tspan><tspan x="76.95" y="0">e</tspan><tspan class="cls-27" x="81.96" y="0">c</tspan><tspan class="cls-19" x="86.57" y="0">t</tspan><tspan x="89.82" y="0">o</tspan><tspan class="cls-20" x="95.31" y="0">r</tspan><tspan x="98.83" y="0">y)</tspan></text><rect class="cls-21" x="926.5" y="208.03" width="172" height="52" rx="9.25"/><path class="cls-4" d="M1246.25,247a8.75,8.75,0,0,1,8.75,8.75v33.5a8.75,8.75,0,0,1-8.75,8.75h-153.5a8.75,8.75,0,0,1-8.75-8.75v-33.5a8.75,8.75,0,0,1,8.75-8.75h153.5m0-1h-153.5a9.74,9.74,0,0,0-9.75,9.75v33.5a9.74,9.74,0,0,0,9.75,9.75h153.5a9.74,9.74,0,0,0,9.75-9.75v-33.5a9.74,9.74,0,0,0-9.75-9.75Z" transform="translate(-157 -38.47)"/><text class="cls-22" transform="translate(948.62 232.8)">Di<tspan class="cls-6" x="16.2" y="0">r</tspan><tspan class="cls-7" x="21.91" y="0">e</tspan><tspan class="cls-8" x="30.92" y="0">c</tspan><tspan class="cls-9" x="39.22" y="0">t</tspan><tspan x="45.07" y="0">o</tspan><tspan class="cls-10" x="54.95" y="0">r</tspan><tspan class="cls-7" x="61.29" y="0">y </tspan><tspan class="cls-11" x="73.58" y="0">S</tspan><tspan x="82.56" y="0">e</tspan><tspan class="cls-12" x="91.58" y="0">r</tspan><tspan x="97.92" y="0">vi</tspan><tspan class="cls-9" x="110.79" y="0">c</tspan><tspan class="cls-13" x="118.74" y="0">e</tspan></text><text class="cls-23" transform="translate(959.98 247.82)"><tspan class="cls-15">(</tspan><tspan x="2.73" y="0">ADIA </tspan><tspan class="cls-24" x="26.14" y="0">R</tspan><tspan class="cls-17" x="31.56" y="0">e</tspan><tspan class="cls-25" x="36.57" y="0">g</tspan><tspan x="42.1" y="0">ional Di</tspan><tspan class="cls-26" x="73.78" y="0">r</tspan><tspan x="76.95" y="0">e</tspan><tspan class="cls-27" x="81.96" y="0">c</tspan><tspan class="cls-19" x="86.57" y="0">t</tspan><tspan x="89.82" y="0">o</tspan><tspan class="cls-20" x="95.31" y="0">r</tspan><tspan x="98.83" y="0">y)</tspan></text><rect x="560" y="230.53" width="7" height="7"/><rect x="573.2" y="230.53" width="7" height="7"/><rect x="586.4" y="230.53" width="7" height="7"/><rect x="599.6" y="230.53" width="7" height="7"/><rect x="612.8" y="230.53" width="7" height="7"/><rect x="626" y="230.53" width="7" height="7"/><rect x="639" y="230.53" width="7" height="7"/><rect x="833" y="230.53" width="7" height="7"/><rect x="846.2" y="230.53" width="7" height="7"/><rect x="859.4" y="230.53" width="7" height="7"/><rect x="872.6" y="230.53" width="7" height="7"/><rect x="885.8" y="230.53" width="7" height="7"/><rect x="899" y="230.53" width="7" height="7"/><rect x="912" y="230.53" width="7" height="7"/><text class="cls-28" transform="translate(334.53 237.33)"><tspan class="cls-29">U</tspan><tspan x="7.69" y="0">sers</tspan></text><text class="cls-28" transform="translate(1116.53 234.33)"><tspan class="cls-29">U</tspan><tspan x="7.69" y="0">sers</tspan></text><rect class="cls-30" x="194" y="341.53" width="79" height="38" rx="5.17"/><path class="cls-31" d="M424.83,380h-6v1h6v-1Zm-12,0h-6v1h6v-1Zm-12,0h-6v1h6v-1Zm-12,0h-6v1h6v-1Zm-12,0h-6v1h6v-1Zm-12,0h-6v1h6v-1Zm-11.77,1a4.86,4.86,0,0,0-.81.76h0l0,0h-.11a5.14,5.14,0,0,0-1.08,2.58h0v0h0v0h0v.05h0v0h0v1.21h1v-1.21a4.14,4.14,0,0,1,1.66-3.33l-.6-.8ZM352,392.38h-1v6h1v-6Zm0,12h-1v6h1v-6Zm.95,11.1-.78.63h0v0h.06v0h.22v0h0v0h0l0,0h0l0,0h0l0,0h0a5.12,5.12,0,0,0,2.63,1.3h0l.14,0h2.18v-1h-1.43a4.17,4.17,0,0,1-3.22-1.52ZM369.6,417h-6v1h6v-1Zm12,0h-6v1h6v-1Zm12,0h-6v1h6v-1Zm12,0h-6v1h6v-1Zm12,0h-6v1h6v-1Zm10.56-1.65a4.15,4.15,0,0,1-3.33,1.65H423.6v1h4.17v0h0A5.22,5.22,0,0,0,429,416l-.79-.6ZM430,404.18h-1v6h1v-6Zm0-12h-1v6h1v-6Zm-2.22-11.26-.57.82a4.18,4.18,0,0,1,1.79,3.43v1h1v-1h-.29v0h0v0h0l0,0h0v0h0v0h0v0h0a5.19,5.19,0,0,0-1.84-2.3Z" transform="translate(-157 -38.47)"/><rect class="cls-30" y="406.53" width="79" height="38" rx="5.17"/><text class="cls-32" transform="translate(9.23 422.12)"><tspan class="cls-33">S</tspan><tspan class="cls-34" x="5.99" y="0">e</tspan><tspan class="cls-12" x="12" y="0">r</tspan><tspan x="16.22" y="0">vi</tspan><tspan class="cls-29" x="24.8" y="0">c</tspan><tspan class="cls-34" x="30.11" y="0">e</tspan><tspan class="cls-35" x="0" y="14.4">P</tspan><tspan class="cls-36" x="6.19" y="14.4">r</tspan><tspan class="cls-37" x="10" y="14.4">o</tspan><tspan x="16.5" y="14.4">vider</tspan></text><text class="cls-32" transform="translate(202.23 357.12)">Ide<tspan class="cls-38" x="15.65" y="0">n</tspan><tspan class="cls-34" x="22.26" y="0">ti</tspan><tspan class="cls-39" x="29.04" y="0">t</tspan><tspan x="33.12" y="0">y</tspan><tspan x="0" y="14.4">Esc</tspan><tspan class="cls-36" x="16.03" y="14.4">r</tspan><tspan class="cls-37" x="19.84" y="14.4">o</tspan><tspan x="26.34" y="14.4">w</tspan></text><rect class="cls-30" x="86" y="406.53" width="79" height="38" rx="5.17"/><text class="cls-32" transform="translate(94.23 422.12)">SP<tspan class="cls-40"><tspan x="0" y="14.4">A</tspan><tspan class="cls-41" x="7.2" y="14.4">ge</tspan><tspan class="cls-38" x="19.92" y="14.4">n</tspan><tspan class="cls-34" x="26.53" y="14.4">t</tspan></tspan></text><rect class="cls-30" x="86" y="450.53" width="79" height="38" rx="5.17"/><text class="cls-32" transform="translate(95.23 465.12)">Issuer<tspan class="cls-40"><tspan x="0" y="14.4">A</tspan><tspan class="cls-41" x="7.2" y="14.4">ge</tspan><tspan class="cls-38" x="19.92" y="14.4">n</tspan><tspan class="cls-34" x="26.53" y="14.4">t</tspan></tspan></text><rect class="cls-30" y="450.53" width="79" height="38" rx="5.17"/><text class="cls-32" transform="translate(10.23 473.12)">Issuer</text><rect class="cls-30" x="190" y="405.53" width="173" height="83" rx="9.75"/><text class="cls-42" transform="translate(203.97 447.27)">D<tspan class="cls-43" x="23.47" y="0">AS</tspan></text><text class="cls-32" transform="translate(206.97 468.27)">(Di<tspan class="cls-29" x="14.21" y="0">g</tspan><tspan class="cls-41" x="20.84" y="0">ital </tspan><tspan class="cls-44" x="38.78" y="0">A</tspan><tspan x="45.98" y="0">dd</tspan><tspan class="cls-36" x="59.52" y="0">r</tspan><tspan x="63.32" y="0">ess </tspan><tspan class="cls-33" x="81.38" y="0">S</tspan><tspan class="cls-34" x="87.37" y="0">e</tspan><tspan class="cls-12" x="93.38" y="0">r</tspan><tspan x="97.61" y="0">vi</tspan><tspan class="cls-45" x="106.19" y="0">c</tspan><tspan class="cls-34" x="111.49" y="0">e)</tspan></text><path class="cls-46" d="M338.43,619.37c0-4.58-3-8.29-6.69-8.29H317.4c-3.67,0-6.65,3.69-6.65,8.24v18.24h0a.4.4,0,0,0,0,.15c0,1.41,6.2,2.56,13.84,2.56s13.84-1.15,13.84-2.56a.4.4,0,0,0,0-.15h0Z" transform="translate(-157 -38.47)"/><circle class="cls-46" cx="167.59" cy="565.54" r="8.57"/><path class="cls-46" d="M364,619.37c0-4.58-3-8.29-6.69-8.29H343c-3.67,0-6.65,3.69-6.65,8.24v18.24h0a.4.4,0,0,0,0,.15c0,1.41,6.2,2.56,13.84,2.56S364,639.12,364,637.71a.4.4,0,0,0,0-.15h0Z" transform="translate(-157 -38.47)"/><circle class="cls-46" cx="193.16" cy="564.54" r="8.57"/><path class="cls-46" d="M353.48,626.69c0-5.33-3.48-9.64-7.78-9.64H329c-4.27,0-7.73,4.29-7.73,9.58v21.22h0a.55.55,0,0,0,0,.17c0,1.65,7.21,3,16.1,3s16.1-1.33,16.1-3a.55.55,0,0,0,0-.17h0Z" transform="translate(-157 -38.47)"/><circle class="cls-46" cx="180.38" cy="569.85" r="9.98"/><rect class="cls-47" x="222" y="528.03" width="21" height="35" rx="3.69"/><rect class="cls-47" x="223.69" y="529.61" width="17.61" height="28" rx="3.42"/><ellipse class="cls-47" cx="232.25" cy="560.08" rx="1.33" ry="1.45"/><rect class="cls-48" x="639" y="625.53" width="79" height="38" rx="5.17"/><path class="cls-49" d="M869.83,664h-6v1h6v-1Zm-12,0h-6v1h6v-1Zm-12,0h-6v1h6v-1Zm-12,0h-6v1h6v-1Zm-12,0h-6v1h6v-1Zm-12,0h-6v1h6v-1Zm-11.77,1a5.28,5.28,0,0,0-1.68,2.17h0l0,.07h0s0,.08,0,.12h0v0h0v0h0v0h0v0h0v0h0v0h0v0h0v0h0v0h0v0h0v0h0v0h0v0h0v0h0v0h0v0h0v0h0v0H796v1.21h1v-1.21a4.14,4.14,0,0,1,1.66-3.33l-.6-.8ZM797,676.38h-1v6h1v-6Zm0,12h-1v6h1v-6Zm1,11.1-.78.63c.14.16.28.32.43.46h0l0,0h.08a5.15,5.15,0,0,0,2.69,1.27h0l.1,0h2.11v-1h-1.43a4.17,4.17,0,0,1-3.22-1.52ZM814.6,701h-6v1h6v-1Zm12,0h-6v1h6v-1Zm12,0h-6v1h6v-1Zm12,0h-6v1h6v-1Zm12,0h-6v1h6v-1Zm10.56-1.65a4.15,4.15,0,0,1-3.33,1.65H868.6v1h3.1l.07,0h0l.4-.19h0A5.13,5.13,0,0,0,874,700l-.79-.6ZM875,688.18h-1v6h1v-6Zm0-12h-1v6h1v-6Zm-2.22-11.26-.57.82a4.18,4.18,0,0,1,1.79,3.43v1h1v-1h-.12v0h0v0h0v0h0v0h0v0h0v0h0v0h0l0-.07h0l0-.06h0a5.08,5.08,0,0,0-1.24-2.16h0v0h-.21a4.15,4.15,0,0,0-.56-.46Z" transform="translate(-157 -38.47)"/><rect class="cls-48" x="533" y="727.53" width="79" height="38" rx="5.17"/><text class="cls-32" transform="translate(542.23 743.12)"><tspan class="cls-33">S</tspan><tspan class="cls-34" x="5.99" y="0">e</tspan><tspan class="cls-12" x="12" y="0">r</tspan><tspan x="16.22" y="0">vi</tspan><tspan class="cls-29" x="24.8" y="0">c</tspan><tspan class="cls-34" x="30.11" y="0">e</tspan><tspan class="cls-35" x="0" y="14.4">P</tspan><tspan class="cls-36" x="6.19" y="14.4">r</tspan><tspan class="cls-37" x="10" y="14.4">o</tspan><tspan x="16.5" y="14.4">vider</tspan></text><rect class="cls-48" x="626" y="578.53" width="79" height="38" rx="5.17"/><path class="cls-49" d="M856.83,617h-6v1h6v-1Zm-12,0h-6v1h6v-1Zm-12,0h-6v1h6v-1Zm-12,0h-6v1h6v-1Zm-12,0h-6v1h6v-1Zm-12,0h-6v1h6v-1Zm-11.77,1a5.28,5.28,0,0,0-1.68,2.17h0l0,.07h0s0,.08,0,.12h0v0h0v0h0v0h0v0h0v0h0v0h0v0h0v0h0v0h0v0h0v0h0v0h0v0h0v0h0v0h0v0h0v0h0v0H783v1.21h1v-1.21a4.14,4.14,0,0,1,1.66-3.33l-.6-.8ZM784,629.38h-1v6h1v-6Zm0,12h-1v6h1v-6Zm1,11.1-.78.63c.14.16.28.32.43.46h0l0,0h.08a5.15,5.15,0,0,0,2.69,1.27h0l.1,0h2.11v-1h-1.43a4.17,4.17,0,0,1-3.22-1.52ZM801.6,654h-6v1h6v-1Zm12,0h-6v1h6v-1Zm12,0h-6v1h6v-1Zm12,0h-6v1h6v-1Zm12,0h-6v1h6v-1Zm10.56-1.65a4.15,4.15,0,0,1-3.33,1.65H855.6v1h3.1l.07,0h0l.4-.19h0A5.13,5.13,0,0,0,861,653l-.79-.6ZM862,641.18h-1v6h1v-6Zm0-12h-1v6h1v-6Zm-2.22-11.26-.57.82a4.18,4.18,0,0,1,1.79,3.43v1h1v-1h-.12v0h0v0h0v0h0v0h0v0h0v0h0v0h0l0-.07h0l0-.06h0a5.08,5.08,0,0,0-1.24-2.16h0v0h-.21a4.15,4.15,0,0,0-.56-.46Z" transform="translate(-157 -38.47)"/><text class="cls-32" transform="translate(634.23 594.12)"><tspan class="cls-50">C</tspan><tspan class="cls-36" x="6.92" y="0">r</tspan><tspan x="10.73" y="0">ede</tspan><tspan class="cls-51" x="29.52" y="0">n</tspan><tspan x="36.13" y="0">tial</tspan><tspan x="0" y="14.4">B</tspan><tspan class="cls-36" x="6.5" y="14.4">r</tspan><tspan x="10.31" y="14.4">oker</tspan></text><rect class="cls-48" x="533" y="676.53" width="79" height="38" rx="5.17"/><text class="cls-32" transform="translate(541.23 692.12)">SP<tspan class="cls-40"><tspan x="0" y="14.4">A</tspan><tspan class="cls-41" x="7.2" y="14.4">ge</tspan><tspan class="cls-38" x="19.92" y="14.4">n</tspan><tspan class="cls-34" x="26.53" y="14.4">t</tspan></tspan></text><rect class="cls-48" x="439" y="676.53" width="79" height="38" rx="5.17"/><text class="cls-32" transform="translate(448.23 691.12)">Issuer<tspan class="cls-40"><tspan x="0" y="14.4">A</tspan><tspan class="cls-41" x="7.2" y="14.4">ge</tspan><tspan class="cls-38" x="19.92" y="14.4">n</tspan><tspan class="cls-34" x="26.53" y="14.4">t</tspan></tspan></text><rect class="cls-48" x="439" y="725.53" width="79" height="38" rx="5.17"/><text class="cls-32" transform="translate(449.23 748.12)">Issuer</text><path class="cls-52" d="M491.43,657.37c0-4.58-3-8.29-6.69-8.29H470.4c-3.67,0-6.65,3.69-6.65,8.24v18.24h0a.4.4,0,0,0,0,.15c0,1.41,6.2,2.56,13.84,2.56s13.84-1.15,13.84-2.56a.4.4,0,0,0,0-.15h0Z" transform="translate(-157 -38.47)"/><circle class="cls-52" cx="320.59" cy="603.54" r="8.57"/><path class="cls-52" d="M517,657.37c0-4.58-3-8.29-6.69-8.29H496c-3.67,0-6.65,3.69-6.65,8.24v18.24h0a.4.4,0,0,0,0,.15c0,1.41,6.2,2.56,13.84,2.56S517,677.12,517,675.71a.4.4,0,0,0,0-.15h0Z" transform="translate(-157 -38.47)"/><circle class="cls-52" cx="346.16" cy="602.54" r="8.57"/><path class="cls-52" d="M506.48,664.69c0-5.33-3.48-9.64-7.78-9.64H482c-4.27,0-7.73,4.29-7.73,9.58v21.22h0a.55.55,0,0,0,0,.17c0,1.65,7.21,3,16.1,3s16.1-1.33,16.1-3a.55.55,0,0,0,0-.17h0Z" transform="translate(-157 -38.47)"/><circle class="cls-52" cx="333.38" cy="607.85" r="9.98"/><rect class="cls-53" x="375" y="601.03" width="21" height="35" rx="3.69"/><rect class="cls-53" x="376.69" y="602.61" width="17.61" height="28" rx="3.42"/><ellipse class="cls-53" cx="385.25" cy="633.08" rx="1.33" ry="1.45"/><line class="cls-1" x1="96.5" y1="320.03" x2="96.5" y2="406.53"/><line class="cls-1" x1="125.5" y1="360.03" x2="125.5" y2="406.53"/><line class="cls-1" x1="247.5" y1="380.03" x2="247.5" y2="405.03"/><line class="cls-1" x1="233.5" y1="488.03" x2="233.5" y2="527.53"/><line class="cls-1" x1="1237.5" y1="492.03" x2="1237.5" y2="520.03"/><line class="cls-1" x1="193.5" y1="360.03" x2="125.5" y2="360.03"/><line class="cls-1" x1="1368.5" y1="471.03" x2="1359" y2="471.03"/><line class="cls-1" x1="1368.5" y1="427.03" x2="1359" y2="427.03"/><line class="cls-1" x1="1280.5" y1="471.03" x2="1266" y2="471.03"/><line class="cls-1" x1="1280.5" y1="428.03" x2="1266" y2="428.03"/><line class="cls-1" x1="1340" y1="370.03" x2="1257.5" y2="370.03"/><line class="cls-1" x1="1351" y1="325.03" x2="1045.5" y2="325.03"/><line class="cls-1" x1="1098" y1="428.03" x2="361.5" y2="428.03"/><line class="cls-1" x1="1098" y1="465.03" x2="361.5" y2="465.03"/><line class="cls-1" x1="403.5" y1="320.03" x2="403.5" y2="404.03"/><line class="cls-1" x1="96.5" y1="320.03" x2="403.5" y2="320.03"/><polygon class="cls-54" points="195 360.09 185.58 354.65 185.58 365.53 195 360.09"/><polygon class="cls-54" points="247.99 379.15 242.98 387.83 253 387.83 247.99 379.15"/><polygon class="cls-54" points="675.99 662.15 670.98 670.83 681 670.83 675.99 662.15"/><polygon class="cls-54" points="780.99 664.15 775.98 672.83 786 672.83 780.99 664.15"/><polygon class="cls-54" points="403.26 405.67 408.54 396.53 397.98 396.53 403.26 405.67"/><polygon class="cls-55" points="418.69 258.9 409 263.46 417.79 269.57 418.69 258.9"/><polygon class="cls-55" points="1061.07 260.62 1061.07 271.33 1070.34 265.97 1061.07 260.62"/><polygon class="cls-55" points="687.56 145.27 676.78 144.32 681.35 154.13 687.56 145.27"/><polygon class="cls-55" points="784.31 145.14 794.8 144.22 790.35 153.77 784.31 145.14"/><polygon class="cls-55" points="739.73 144.15 745.14 153.53 734.31 153.53 739.73 144.15"/><polygon class="cls-55" points="960.73 259.15 966.14 268.53 955.31 268.53 960.73 259.15"/><polygon class="cls-55" points="517.73 260.15 523.14 269.53 512.31 269.53 517.73 260.15"/><rect class="cls-48" x="439" y="576.53" width="173" height="83" rx="9.75"/><text class="cls-42" transform="translate(452.97 618.27)">D<tspan class="cls-43" x="23.47" y="0">AS</tspan></text><text class="cls-32" transform="translate(455.97 642.27)">(Di<tspan class="cls-29" x="14.21" y="0">g</tspan><tspan class="cls-41" x="20.84" y="0">ital </tspan><tspan class="cls-44" x="38.78" y="0">A</tspan><tspan x="45.98" y="0">dd</tspan><tspan class="cls-36" x="59.52" y="0">r</tspan><tspan x="63.32" y="0">ess </tspan><tspan class="cls-33" x="81.38" y="0">S</tspan><tspan class="cls-34" x="87.37" y="0">e</tspan><tspan class="cls-12" x="93.38" y="0">r</tspan><tspan x="97.61" y="0">vi</tspan><tspan class="cls-45" x="106.19" y="0">c</tspan><tspan class="cls-34" x="111.49" y="0">e)</tspan></text><text class="cls-32" transform="translate(646.23 642.12)">Ide<tspan class="cls-38" x="15.65" y="0">n</tspan><tspan class="cls-34" x="22.26" y="0">ti</tspan><tspan class="cls-39" x="29.04" y="0">t</tspan><tspan x="33.12" y="0">y</tspan><tspan x="0" y="14.4">Esc</tspan><tspan class="cls-36" x="16.03" y="14.4">r</tspan><tspan class="cls-37" x="19.84" y="14.4">o</tspan><tspan x="26.34" y="14.4">w</tspan></text><rect class="cls-56" x="741" y="625.53" width="79" height="38" rx="5.17"/><path class="cls-49" d="M971.83,664h-6v1h6v-1Zm-12,0h-6v1h6v-1Zm-12,0h-6v1h6v-1Zm-12,0h-6v1h6v-1Zm-12,0h-6v1h6v-1Zm-12,0h-6v1h6v-1Zm-11.77,1a5.28,5.28,0,0,0-1.68,2.17h0l0,.07h0s0,.08,0,.12h0v0h0v0h0v0h0v0h0v0h0v0h0v0h0v0h0v0h0v0h0v0h0v0h0v0h0v0h0v0h0v0h0v0h0v0H898v1.21h1v-1.21a4.14,4.14,0,0,1,1.66-3.33l-.6-.8ZM899,676.38h-1v6h1v-6Zm0,12h-1v6h1v-6Zm1,11.1-.78.63c.14.16.28.32.43.46h0l0,0h.08a5.15,5.15,0,0,0,2.69,1.27h0l.1,0h2.11v-1h-1.43a4.17,4.17,0,0,1-3.22-1.52ZM916.6,701h-6v1h6v-1Zm12,0h-6v1h6v-1Zm12,0h-6v1h6v-1Zm12,0h-6v1h6v-1Zm12,0h-6v1h6v-1Zm10.56-1.65a4.15,4.15,0,0,1-3.33,1.65H970.6v1h3.1l.07,0h0l.4-.19h0A5.13,5.13,0,0,0,976,700l-.79-.6ZM977,688.18h-1v6h1v-6Zm0-12h-1v6h1v-6Zm-2.22-11.26-.57.82a4.18,4.18,0,0,1,1.79,3.43v1h1v-1h-.12v0h0v0h0v0h0v0h0v0h0v0h0v0h0l0-.07h0l0-.06h0a5.08,5.08,0,0,0-1.24-2.16h0v0h-.21a4.15,4.15,0,0,0-.56-.46Z" transform="translate(-157 -38.47)"/><rect class="cls-57" x="1179" y="341.53" width="79" height="38" rx="5.17"/><path class="cls-58" d="M1409.83,380h-6v1h6v-1Zm-12,0h-6v1h6v-1Zm-12,0h-6v1h6v-1Zm-12,0h-6v1h6v-1Zm-12,0h-6v1h6v-1Zm-12,0h-6v1h6v-1Zm-11.77,1a5.14,5.14,0,0,0-1.9,2.86h0v0h0v0h0v0h0v0h0v0h0v0h0v0h0v0h0v0h0v0H1336v1.21h1v-1.21a4.14,4.14,0,0,1,1.66-3.33l-.6-.8ZM1337,392.38h-1v6h1v-6Zm0,12h-1v6h1v-6Zm1,11.1-.78.63a5.16,5.16,0,0,0,3.21,1.83h0l.15,0h2.07v-1h-1.43a4.17,4.17,0,0,1-3.22-1.52ZM1354.6,417h-6v1h6v-1Zm12,0h-6v1h6v-1Zm12,0h-6v1h6v-1Zm12,0h-6v1h6v-1Zm12,0h-6v1h6v-1Zm10.56-1.65a4.15,4.15,0,0,1-3.33,1.65h-1.23v1H1411l.15,0h0a5.2,5.2,0,0,0,1.12-.43h0l0,0h.44l0,0h0A5.33,5.33,0,0,0,1414,416l-.79-.6Zm1.84-11.17h-1v6h1v-6Zm0-12h-1v6h1v-6Zm-2.22-11.26-.57.82a4.18,4.18,0,0,1,1.79,3.43v1h1v-1h0v0h0v0h0v0h0v0h0v0h0v0h0v0h0a5.19,5.19,0,0,0-1.47-3h-.17a3.69,3.69,0,0,0-.53-.43Z" transform="translate(-157 -38.47)"/><rect class="cls-56" x="847" y="727.53" width="79" height="38" rx="5.17"/><text class="cls-32" transform="translate(856.23 743.12)"><tspan class="cls-33">S</tspan><tspan class="cls-34" x="5.99" y="0">e</tspan><tspan class="cls-12" x="12" y="0">r</tspan><tspan x="16.22" y="0">vi</tspan><tspan class="cls-29" x="24.8" y="0">c</tspan><tspan class="cls-34" x="30.11" y="0">e</tspan><tspan class="cls-35" x="0" y="14.4">P</tspan><tspan class="cls-36" x="6.19" y="14.4">r</tspan><tspan class="cls-37" x="10" y="14.4">o</tspan><tspan x="16.5" y="14.4">vider</tspan></text><rect class="cls-57" x="1368" y="408.53" width="79" height="38" rx="5.17"/><text class="cls-32" transform="translate(1377.23 424.12)"><tspan class="cls-33">S</tspan><tspan class="cls-34" x="5.99" y="0">e</tspan><tspan class="cls-12" x="12" y="0">r</tspan><tspan x="16.22" y="0">vi</tspan><tspan class="cls-29" x="24.8" y="0">c</tspan><tspan class="cls-34" x="30.11" y="0">e</tspan><tspan class="cls-35" x="0" y="14.4">P</tspan><tspan class="cls-36" x="6.19" y="14.4">r</tspan><tspan class="cls-37" x="10" y="14.4">o</tspan><tspan x="16.5" y="14.4">vider</tspan></text><rect class="cls-56" x="753" y="578.53" width="79" height="38" rx="5.17"/><path class="cls-49" d="M983.83,617h-6v1h6v-1Zm-12,0h-6v1h6v-1Zm-12,0h-6v1h6v-1Zm-12,0h-6v1h6v-1Zm-12,0h-6v1h6v-1Zm-12,0h-6v1h6v-1Zm-11.77,1a5.28,5.28,0,0,0-1.68,2.17h0l0,.07h0s0,.08,0,.12h0v0h0v0h0v0h0v0h0v0h0v0h0v0h0v0h0v0h0v0h0v0h0v0h0v0h0v0h0v0h0v0h0v0h0v0H910v1.21h1v-1.21a4.14,4.14,0,0,1,1.66-3.33l-.6-.8ZM911,629.38h-1v6h1v-6Zm0,12h-1v6h1v-6Zm1,11.1-.78.63c.14.16.28.32.43.46h0l0,0h.08a5.15,5.15,0,0,0,2.69,1.27h0l.1,0h2.11v-1h-1.43a4.17,4.17,0,0,1-3.22-1.52ZM928.6,654h-6v1h6v-1Zm12,0h-6v1h6v-1Zm12,0h-6v1h6v-1Zm12,0h-6v1h6v-1Zm12,0h-6v1h6v-1Zm10.56-1.65a4.15,4.15,0,0,1-3.33,1.65H982.6v1h3.1l.07,0h0l.4-.19h0A5.13,5.13,0,0,0,988,653l-.79-.6ZM989,641.18h-1v6h1v-6Zm0-12h-1v6h1v-6Zm-2.22-11.26-.57.82a4.18,4.18,0,0,1,1.79,3.43v1h1v-1h-.12v0h0v0h0v0h0v0h0v0h0v0h0v0h0l0-.07h0l0-.06h0a5.08,5.08,0,0,0-1.24-2.16h0v0h-.21a4.15,4.15,0,0,0-.56-.46Z" transform="translate(-157 -38.47)"/><text class="cls-32" transform="translate(761.23 594.12)"><tspan class="cls-50">C</tspan><tspan class="cls-36" x="6.92" y="0">r</tspan><tspan x="10.73" y="0">ede</tspan><tspan class="cls-51" x="29.52" y="0">n</tspan><tspan x="36.13" y="0">tial</tspan><tspan x="0" y="14.4">B</tspan><tspan class="cls-36" x="6.5" y="14.4">r</tspan><tspan x="10.31" y="14.4">oker</tspan></text><rect class="cls-57" x="987" y="405.53" width="79" height="38" rx="5.17"/><path class="cls-59" d="M1217.83,444h-6v1h6v-1Zm-12,0h-6v1h6v-1Zm-12,0h-6v1h6v-1Zm-12,0h-6v1h6v-1Zm-12,0h-6v1h6v-1Zm-12,0h-6v1h6v-1Zm-11.77,1a5.14,5.14,0,0,0-1.9,2.86h0v0h0v0h0v0h0v0h0v0h0v0h0v0h0v0h0v0h0v0H1144v1.21h1v-1.21a4.14,4.14,0,0,1,1.66-3.33l-.6-.8ZM1145,456.38h-1v6h1v-6Zm0,12h-1v6h1v-6Zm1,11.1-.78.63a5.16,5.16,0,0,0,3.21,1.83h0l.15,0h2.07v-1h-1.43a4.17,4.17,0,0,1-3.22-1.52ZM1162.6,481h-6v1h6v-1Zm12,0h-6v1h6v-1Zm12,0h-6v1h6v-1Zm12,0h-6v1h6v-1Zm12,0h-6v1h6v-1Zm10.56-1.65a4.15,4.15,0,0,1-3.33,1.65h-1.23v1H1219l.15,0h0a5.2,5.2,0,0,0,1.12-.43h0l0,0h.44l0,0h0A5.33,5.33,0,0,0,1222,480l-.79-.6Zm1.84-11.17h-1v6h1v-6Zm0-12h-1v6h1v-6Zm-2.22-11.26-.57.82a4.18,4.18,0,0,1,1.79,3.43v1h1v-1h0v0h0v0h0v0h0v0h0v0h0v0h0v0h0a5.19,5.19,0,0,0-1.47-3h-.17a3.69,3.69,0,0,0-.53-.43Z" transform="translate(-157 -38.47)"/><text class="cls-32" transform="translate(995.23 421.12)"><tspan class="cls-50">C</tspan><tspan class="cls-36" x="6.92" y="0">r</tspan><tspan x="10.73" y="0">ede</tspan><tspan class="cls-51" x="29.52" y="0">n</tspan><tspan x="36.13" y="0">tial</tspan><tspan x="0" y="14.4">B</tspan><tspan class="cls-36" x="6.5" y="14.4">r</tspan><tspan x="10.31" y="14.4">oker</tspan></text><rect class="cls-56" x="847" y="676.53" width="79" height="38" rx="5.17"/><text class="cls-32" transform="translate(855.23 692.12)">SP<tspan class="cls-40"><tspan x="0" y="14.4">A</tspan><tspan class="cls-41" x="7.2" y="14.4">ge</tspan><tspan class="cls-38" x="19.92" y="14.4">n</tspan><tspan class="cls-34" x="26.53" y="14.4">t</tspan></tspan></text><rect class="cls-57" x="1280" y="408.53" width="79" height="38" rx="5.17"/><text class="cls-32" transform="translate(1288.23 424.12)">SP<tspan class="cls-40"><tspan x="0" y="14.4">A</tspan><tspan class="cls-41" x="7.2" y="14.4">ge</tspan><tspan class="cls-38" x="19.92" y="14.4">n</tspan><tspan class="cls-34" x="26.53" y="14.4">t</tspan></tspan></text><rect class="cls-56" x="942" y="676.53" width="79" height="38" rx="5.17"/><text class="cls-32" transform="translate(951.23 691.12)">Issuer<tspan class="cls-40"><tspan x="0" y="14.4">A</tspan><tspan class="cls-41" x="7.2" y="14.4">ge</tspan><tspan class="cls-38" x="19.92" y="14.4">n</tspan><tspan class="cls-34" x="26.53" y="14.4">t</tspan></tspan></text><rect class="cls-57" x="1280" y="452.53" width="79" height="38" rx="5.17"/><text class="cls-32" transform="translate(1289.23 467.12)">Issuer<tspan class="cls-40"><tspan x="0" y="14.4">A</tspan><tspan class="cls-41" x="7.2" y="14.4">ge</tspan><tspan class="cls-38" x="19.92" y="14.4">n</tspan><tspan class="cls-34" x="26.53" y="14.4">t</tspan></tspan></text><rect class="cls-56" x="942" y="725.53" width="79" height="38" rx="5.17"/><text class="cls-32" transform="translate(952.23 748.12)">Issuer</text><rect class="cls-57" x="1368" y="452.53" width="79" height="38" rx="5.17"/><text class="cls-32" transform="translate(1378.23 475.12)">Issuer</text><path class="cls-60" d="M1283.43,654.37c0-4.58-3-8.29-6.69-8.29H1262.4c-3.67,0-6.65,3.69-6.65,8.24v18.24h0a.4.4,0,0,0,0,.15c0,1.41,6.2,2.56,13.84,2.56s13.84-1.15,13.84-2.56a.4.4,0,0,0,0-.15h0Z" transform="translate(-157 -38.47)"/><circle class="cls-60" cx="1112.59" cy="600.54" r="8.57"/><path class="cls-60" d="M1309,654.37c0-4.58-3-8.29-6.69-8.29H1288c-3.67,0-6.65,3.69-6.65,8.24v18.24h0a.4.4,0,0,0,0,.15c0,1.41,6.2,2.56,13.84,2.56s13.84-1.15,13.84-2.56a.4.4,0,0,0,0-.15h0Z" transform="translate(-157 -38.47)"/><circle class="cls-60" cx="1138.16" cy="599.54" r="8.57"/><path class="cls-60" d="M1298.48,661.69c0-5.33-3.48-9.64-7.78-9.64H1274c-4.27,0-7.73,4.29-7.73,9.58v21.22h0a.55.55,0,0,0,0,.17c0,1.65,7.21,3,16.1,3s16.1-1.33,16.1-3a.55.55,0,0,0,0-.17h0Z" transform="translate(-157 -38.47)"/><circle class="cls-60" cx="1125.38" cy="604.85" r="9.98"/><path class="cls-61" d="M1442.43,613.37c0-4.58-3-8.29-6.69-8.29H1421.4c-3.67,0-6.65,3.69-6.65,8.24v18.24h0a.4.4,0,0,0,0,.15c0,1.41,6.2,2.56,13.84,2.56s13.84-1.15,13.84-2.56a.4.4,0,0,0,0-.15h0Z" transform="translate(-157 -38.47)"/><circle class="cls-61" cx="1271.59" cy="559.54" r="8.57"/><path class="cls-61" d="M1468,613.37c0-4.58-3-8.29-6.69-8.29H1447c-3.67,0-6.65,3.69-6.65,8.24v18.24h0a.4.4,0,0,0,0,.15c0,1.41,6.2,2.56,13.84,2.56s13.84-1.15,13.84-2.56a.4.4,0,0,0,0-.15h0Z" transform="translate(-157 -38.47)"/><circle class="cls-61" cx="1297.16" cy="558.54" r="8.57"/><path class="cls-61" d="M1457.48,620.69c0-5.33-3.48-9.64-7.78-9.64H1433c-4.27,0-7.73,4.29-7.73,9.58v21.22h0a.55.55,0,0,0,0,.17c0,1.65,7.21,3,16.1,3s16.1-1.33,16.1-3a.55.55,0,0,0,0-.17h0Z" transform="translate(-157 -38.47)"/><circle class="cls-61" cx="1284.38" cy="563.85" r="9.98"/><rect class="cls-62" x="1060" y="602.03" width="21" height="35" rx="3.69"/><rect class="cls-62" x="1061.69" y="603.61" width="17.61" height="28" rx="3.42"/><ellipse class="cls-62" cx="1070.25" cy="634.08" rx="1.33" ry="1.45"/><rect class="cls-63" x="1226" y="521.03" width="21" height="35" rx="3.69"/><rect class="cls-63" x="1227.69" y="522.61" width="17.61" height="28" rx="3.42"/><ellipse class="cls-63" cx="1236.25" cy="553.08" rx="1.33" ry="1.45"/><rect class="cls-56" x="848" y="577.53" width="173" height="83" rx="9.75"/><text class="cls-42" transform="translate(861.97 619.27)">D<tspan class="cls-43" x="23.47" y="0">AS</tspan></text><text class="cls-32" transform="translate(864.97 643.27)">(Di<tspan class="cls-29" x="14.21" y="0">g</tspan><tspan class="cls-41" x="20.84" y="0">ital </tspan><tspan class="cls-44" x="38.78" y="0">A</tspan><tspan x="45.98" y="0">dd</tspan><tspan class="cls-36" x="59.52" y="0">r</tspan><tspan x="63.32" y="0">ess </tspan><tspan class="cls-33" x="81.38" y="0">S</tspan><tspan class="cls-34" x="87.37" y="0">e</tspan><tspan class="cls-12" x="93.38" y="0">r</tspan><tspan x="97.61" y="0">vi</tspan><tspan class="cls-45" x="106.19" y="0">c</tspan><tspan class="cls-34" x="111.49" y="0">e)</tspan></text><rect class="cls-57" x="1093" y="408.53" width="173" height="83" rx="9.75"/><text class="cls-42" transform="translate(1106.97 450.27)">D<tspan class="cls-43" x="23.47" y="0">AS</tspan></text><text class="cls-32" transform="translate(1109.97 474.27)">(Di<tspan class="cls-29" x="14.21" y="0">g</tspan><tspan class="cls-41" x="20.84" y="0">ital </tspan><tspan class="cls-44" x="38.78" y="0">A</tspan><tspan x="45.98" y="0">dd</tspan><tspan class="cls-36" x="59.52" y="0">r</tspan><tspan x="63.32" y="0">ess </tspan><tspan class="cls-33" x="81.38" y="0">S</tspan><tspan class="cls-34" x="87.37" y="0">e</tspan><tspan class="cls-12" x="93.38" y="0">r</tspan><tspan x="97.61" y="0">vi</tspan><tspan class="cls-45" x="106.19" y="0">c</tspan><tspan class="cls-34" x="111.49" y="0">e)</tspan></text><text class="cls-32" transform="translate(749.23 642.12)">Ide<tspan class="cls-38" x="15.65" y="0">n</tspan><tspan class="cls-34" x="22.26" y="0">ti</tspan><tspan class="cls-39" x="29.04" y="0">t</tspan><tspan x="33.12" y="0">y</tspan><tspan x="0" y="14.4">Esc</tspan><tspan class="cls-36" x="16.03" y="14.4">r</tspan><tspan class="cls-37" x="19.84" y="14.4">o</tspan><tspan x="26.34" y="14.4">w</tspan></text><text class="cls-32" transform="translate(1187.23 357.12)">Ide<tspan class="cls-38" x="15.65" y="0">n</tspan><tspan class="cls-34" x="22.26" y="0">ti</tspan><tspan class="cls-39" x="29.04" y="0">t</tspan><tspan x="33.12" y="0">y</tspan><tspan x="0" y="14.4">Esc</tspan><tspan class="cls-36" x="16.03" y="14.4">r</tspan><tspan class="cls-37" x="19.84" y="14.4">o</tspan><tspan x="26.34" y="14.4">w</tspan></text><line class="cls-64" x1="417.5" y1="261.03" x2="307.5" y2="406.03"/><line class="cls-64" x1="1061.5" y1="261.03" x2="1151.5" y2="409.03"/><line class="cls-64" x1="684.5" y1="147.03" x2="525.5" y2="208.03"/><line class="cls-64" x1="517.5" y1="260.03" x2="517.5" y2="576.03"/><line class="cls-64" x1="739.5" y1="145.53" x2="739.5" y2="207.03"/><line class="cls-64" x1="786.5" y1="146.03" x2="945.5" y2="207.03"/><line class="cls-64" x1="960.5" y1="261.03" x2="960.5" y2="578.03"/><text class="cls-28" transform="translate(839.58 121.92)"><tspan class="cls-65">I</tspan><tspan class="cls-66" x="2.99" y="0">n</tspan><tspan class="cls-67" x="9.6" y="0">t</tspan><tspan x="13.5" y="0">e</tspan><tspan class="cls-16" x="19.51" y="0">r</tspan><tspan x="23.32" y="0">change</tspan><tspan class="cls-15" x="60.52" y="0">s</tspan><tspan x="65.14" y="0">, Issuer</tspan><tspan class="cls-15" x="99.08" y="0">s</tspan><tspan x="103.7" y="0">, </tspan><tspan class="cls-68" x="108.73" y="0">S</tspan><tspan x="114.72" y="0">e</tspan><tspan class="cls-12" x="120.73" y="0">r</tspan><tspan class="cls-69" x="124.95" y="0">vi</tspan><tspan class="cls-45" x="133.53" y="0">c</tspan><tspan x="138.84" y="0">e </tspan><tspan class="cls-70" x="147.39" y="0">P</tspan><tspan class="cls-16" x="153.59" y="0">r</tspan><tspan class="cls-37" x="157.39" y="0">o</tspan><tspan class="cls-69" x="163.89" y="0">viders</tspan></text><line class="cls-1" x1="1229.74" y1="380.42" x2="1229.74" y2="408.53"/><polygon class="cls-54" points="1230.23 379.42 1225.21 389.18 1235.24 389.18 1230.23 379.42"/><line class="cls-1" x1="1339.74" y1="370.03" x2="1339.74" y2="408.53"/><line class="cls-1" x1="1045.74" y1="325.03" x2="1045.74" y2="405.03"/><line class="cls-1" x1="816.5" y1="465.03" x2="816.5" y2="578.03"/><line class="cls-1" x1="872.5" y1="465.03" x2="872.5" y2="578.03"/><line class="cls-1" x1="587.5" y1="465.03" x2="587.5" y2="577.53"/><line class="cls-1" x1="645.5" y1="465.03" x2="645.5" y2="579.03"/><line class="cls-1" x1="1350.74" y1="325.03" x2="1350.74" y2="408.53"/><polygon class="cls-54" points="1257.24 369.93 1267 374.94 1267 364.92 1257.24 369.93"/><polygon class="cls-54" points="1045.75 405.29 1050.76 395.53 1040.73 395.53 1045.75 405.29"/><rect class="cls-30" x="385" y="405.53" width="79" height="38" rx="5.17"/><path class="cls-31" d="M615.83,444h-6v1h6v-1Zm-12,0h-6v1h6v-1Zm-12,0h-6v1h6v-1Zm-12,0h-6v1h6v-1Zm-12,0h-6v1h6v-1Zm-12,0h-6v1h6v-1Zm-11.77,1a5.28,5.28,0,0,0-1.68,2.17h0l0,.07h0s0,.08,0,.12h0v0h0v0h0v0h0v0h0v0h0v0h0v0h0v0h0v0h0v0h0v0h0v0h0v0h0v0h0v0h0v0h0v0h0v0H542v1.21h1v-1.21a4.14,4.14,0,0,1,1.66-3.33l-.6-.8ZM543,456.38h-1v6h1v-6Zm0,12h-1v6h1v-6Zm1,11.1-.78.63c.14.16.28.32.43.46h0l0,0h.08a5.15,5.15,0,0,0,2.69,1.27h0l.1,0h2.11v-1h-1.43a4.17,4.17,0,0,1-3.22-1.52ZM560.6,481h-6v1h6v-1Zm12,0h-6v1h6v-1Zm12,0h-6v1h6v-1Zm12,0h-6v1h6v-1Zm12,0h-6v1h6v-1Zm10.56-1.65a4.15,4.15,0,0,1-3.33,1.65H614.6v1h3.1l.07,0h0l.4-.19h0A5.13,5.13,0,0,0,620,480l-.79-.6ZM621,468.18h-1v6h1v-6Zm0-12h-1v6h1v-6Zm-2.22-11.26-.57.82a4.18,4.18,0,0,1,1.79,3.43v1h1v-1h-.12v0h0v0h0v0h0v0h0v0h0v0h0v0h0l0-.07h0l0-.06h0a5.08,5.08,0,0,0-1.24-2.16h0v0h-.21a4.15,4.15,0,0,0-.56-.46Z" transform="translate(-157 -38.47)"/><text class="cls-32" transform="translate(393.23 421.12)"><tspan class="cls-50">C</tspan><tspan class="cls-36" x="6.92" y="0">r</tspan><tspan x="10.73" y="0">ede</tspan><tspan class="cls-51" x="29.52" y="0">n</tspan><tspan x="36.13" y="0">tial</tspan><tspan x="0" y="14.4">B</tspan><tspan class="cls-36" x="6.5" y="14.4">r</tspan><tspan x="10.31" y="14.4">oker</tspan></text><rect class="cls-71" x="567" y="406.53" width="335" height="84"/><text class="cls-72" transform="translate(346.39 527.88)"><tspan class="cls-65">I</tspan><tspan class="cls-73" x="5.98" y="0">n</tspan><tspan class="cls-74" x="19.2" y="0">t</tspan><tspan x="27" y="0">e</tspan><tspan class="cls-16" x="39.02" y="0">r</tspan><tspan x="46.63" y="0">change</tspan></text><line class="cls-1" x1="86.5" y1="471.6" x2="78.5" y2="471.6"/><line class="cls-1" x1="86.5" y1="427.6" x2="78.5" y2="427.6"/><text class="cls-75" transform="translate(11.61 50.22)">ADIA <tspan class="cls-76" x="140.46" y="0">E</tspan><tspan class="cls-77" x="169.74" y="0">c</tspan><tspan x="196.26" y="0">os</tspan><tspan class="cls-77" x="252.96" y="0">y</tspan><tspan x="280.86" y="0">s</tspan><tspan class="cls-77" x="304.62" y="0">t</tspan><tspan x="324.12" y="0">em</tspan></text></svg>