<?xml version="1.0" encoding="UTF-8"?><svg xmlns="http://www.w3.org/2000/svg" xmlns:xlink="http://www.w3.org/1999/xlink" fill-opacity="1" color-rendering="auto" color-interpolation="auto" text-rendering="auto" stroke="black" stroke-linecap="square" width="875" stroke-miterlimit="10" shape-rendering="auto" stroke-opacity="1" fill="black" stroke-dasharray="none" font-weight="normal" stroke-width="1" height="442" font-family="'Dialog'" font-style="normal" stroke-linejoin="miter" font-size="12px" stroke-dashoffset="0" image-rendering="auto">
  <!--Generated by ySVG 2.5-->
  <defs id="genericDefs"/>
  <g>
    <defs id="defs1">
      <clipPath clipPathUnits="userSpaceOnUse" id="clipPath1">
        <path d="M0 0 L875 0 L875 442 L0 442 L0 0 Z"/>
      </clipPath>
      <clipPath clipPathUnits="userSpaceOnUse" id="clipPath2">
        <path d="M73 101 L948 101 L948 543 L73 543 L73 101 Z"/>
      </clipPath>
      <clipPath clipPathUnits="userSpaceOnUse" id="clipPath3">
        <path d="M351 274 L351 302 L492 302 L492 274 Z"/>
      </clipPath>
      <clipPath clipPathUnits="userSpaceOnUse" id="clipPath4">
        <path d="M226 390 L226 418 L326 418 L326 390 Z"/>
      </clipPath>
      <clipPath clipPathUnits="userSpaceOnUse" id="clipPath5">
        <path d="M364 390 L364 418 L464 418 L464 390 Z"/>
      </clipPath>
      <clipPath clipPathUnits="userSpaceOnUse" id="clipPath6">
        <path d="M475 390 L475 418 L575 418 L575 390 Z"/>
      </clipPath>
      <clipPath clipPathUnits="userSpaceOnUse" id="clipPath7">
        <path d="M359 142 L359 170 L483 170 L483 142 Z"/>
      </clipPath>
      <clipPath clipPathUnits="userSpaceOnUse" id="clipPath8">
        <path d="M94 274 L94 302 L218 302 L218 274 Z"/>
      </clipPath>
      <clipPath clipPathUnits="userSpaceOnUse" id="clipPath9">
        <path d="M94 343 L94 371 L218 371 L218 343 Z"/>
      </clipPath>
      <clipPath clipPathUnits="userSpaceOnUse" id="clipPath10">
        <path d="M679 274 L679 302 L833 302 L833 274 Z"/>
      </clipPath>
      <clipPath clipPathUnits="userSpaceOnUse" id="clipPath11">
        <path d="M702 332 L702 360 L801 360 L801 332 Z"/>
      </clipPath>
      <clipPath clipPathUnits="userSpaceOnUse" id="clipPath12">
        <path d="M610 390 L610 418 L709 418 L709 390 Z"/>
      </clipPath>
      <clipPath clipPathUnits="userSpaceOnUse" id="clipPath13">
        <path d="M722 390 L722 418 L821 418 L821 390 Z"/>
      </clipPath>
      <clipPath clipPathUnits="userSpaceOnUse" id="clipPath14">
        <path d="M834 390 L834 418 L933 418 L933 390 Z"/>
      </clipPath>
      <clipPath clipPathUnits="userSpaceOnUse" id="clipPath15">
        <path d="M88 500 L88 528 L188 528 L188 500 Z"/>
      </clipPath>
      <clipPath clipPathUnits="userSpaceOnUse" id="clipPath16">
        <path d="M208 500 L208 528 L332 528 L332 500 Z"/>
      </clipPath>
      <clipPath clipPathUnits="userSpaceOnUse" id="clipPath17">
        <path d="M346 500 L346 528 L482 528 L482 500 Z"/>
      </clipPath>
      <clipPath clipPathUnits="userSpaceOnUse" id="clipPath18">
        <path d="M579 142 L579 170 L703 170 L703 142 Z"/>
      </clipPath>
    </defs>
    <g fill="white" text-rendering="geometricPrecision" shape-rendering="geometricPrecision" transform="translate(-73,-101)" stroke="white">
      <rect x="73" width="875" height="442" y="101" clip-path="url(#clipPath2)" stroke="none"/>
    </g>
    <g fill="rgb(153,204,255)" text-rendering="geometricPrecision" shape-rendering="geometricPrecision" transform="matrix(1,0,0,1,-73,-101)" stroke="rgb(153,204,255)">
      <rect x="352" width="139" height="26" y="275" clip-path="url(#clipPath2)" stroke="none"/>
      <rect x="351" y="274" clip-path="url(#clipPath2)" fill="rgb(218,255,255)" width="1" height="28" stroke="none"/>
      <rect x="352" y="274" clip-path="url(#clipPath2)" fill="rgb(218,255,255)" width="139" height="1" stroke="none"/>
      <rect x="352" y="301" clip-path="url(#clipPath2)" fill="rgb(107,142,178)" width="140" height="1" stroke="none"/>
      <rect x="491" y="274" clip-path="url(#clipPath2)" fill="rgb(107,142,178)" width="1" height="27" stroke="none"/>
    </g>
    <g font-size="13px" stroke-linecap="butt" transform="matrix(1,0,0,1,-73,-101)" text-rendering="geometricPrecision" font-family="sans-serif" shape-rendering="geometricPrecision" font-weight="bold" stroke-miterlimit="1.45">
      <text x="402.1555" xml:space="preserve" y="291.5684" clip-path="url(#clipPath3)" stroke="none">Entity</text>
    </g>
    <g fill="rgb(153,204,255)" text-rendering="geometricPrecision" shape-rendering="geometricPrecision" transform="matrix(1,0,0,1,-73,-101)" stroke="rgb(153,204,255)">
      <rect x="227" width="98" height="26" y="391" clip-path="url(#clipPath2)" stroke="none"/>
      <rect x="226" y="390" clip-path="url(#clipPath2)" fill="rgb(218,255,255)" width="1" height="28" stroke="none"/>
      <rect x="227" y="390" clip-path="url(#clipPath2)" fill="rgb(218,255,255)" width="98" height="1" stroke="none"/>
      <rect x="227" y="417" clip-path="url(#clipPath2)" fill="rgb(107,142,178)" width="99" height="1" stroke="none"/>
      <rect x="325" y="390" clip-path="url(#clipPath2)" fill="rgb(107,142,178)" width="1" height="27" stroke="none"/>
    </g>
    <g font-size="13px" stroke-linecap="butt" transform="matrix(1,0,0,1,-73,-101)" text-rendering="geometricPrecision" font-family="sans-serif" shape-rendering="geometricPrecision" font-weight="bold" stroke-miterlimit="1.45">
      <text x="232.3726" xml:space="preserve" y="407.5684" clip-path="url(#clipPath4)" stroke="none">Organization</text>
    </g>
    <g fill="rgb(153,204,255)" text-rendering="geometricPrecision" shape-rendering="geometricPrecision" transform="matrix(1,0,0,1,-73,-101)" stroke="rgb(153,204,255)">
      <rect x="365" width="98" height="26" y="391" clip-path="url(#clipPath2)" stroke="none"/>
      <rect x="364" y="390" clip-path="url(#clipPath2)" fill="rgb(218,255,255)" width="1" height="28" stroke="none"/>
      <rect x="365" y="390" clip-path="url(#clipPath2)" fill="rgb(218,255,255)" width="98" height="1" stroke="none"/>
      <rect x="365" y="417" clip-path="url(#clipPath2)" fill="rgb(107,142,178)" width="99" height="1" stroke="none"/>
      <rect x="463" y="390" clip-path="url(#clipPath2)" fill="rgb(107,142,178)" width="1" height="27" stroke="none"/>
    </g>
    <g font-size="13px" stroke-linecap="butt" transform="matrix(1,0,0,1,-73,-101)" text-rendering="geometricPrecision" font-family="sans-serif" shape-rendering="geometricPrecision" font-weight="bold" stroke-miterlimit="1.45">
      <text x="391.1548" xml:space="preserve" y="407.5684" clip-path="url(#clipPath5)" stroke="none">Person</text>
    </g>
    <g fill="rgb(153,204,255)" text-rendering="geometricPrecision" shape-rendering="geometricPrecision" transform="matrix(1,0,0,1,-73,-101)" stroke="rgb(153,204,255)">
      <rect x="476" width="98" height="26" y="391" clip-path="url(#clipPath2)" stroke="none"/>
      <rect x="475" y="390" clip-path="url(#clipPath2)" fill="rgb(218,255,255)" width="1" height="28" stroke="none"/>
      <rect x="476" y="390" clip-path="url(#clipPath2)" fill="rgb(218,255,255)" width="98" height="1" stroke="none"/>
      <rect x="476" y="417" clip-path="url(#clipPath2)" fill="rgb(107,142,178)" width="99" height="1" stroke="none"/>
      <rect x="574" y="390" clip-path="url(#clipPath2)" fill="rgb(107,142,178)" width="1" height="27" stroke="none"/>
    </g>
    <g font-size="13px" stroke-linecap="butt" transform="matrix(1,0,0,1,-73,-101)" text-rendering="geometricPrecision" font-family="sans-serif" shape-rendering="geometricPrecision" font-weight="bold" stroke-miterlimit="1.45">
      <text x="502.7991" xml:space="preserve" y="407.5684" clip-path="url(#clipPath6)" stroke="none">Device</text>
    </g>
    <g fill="rgb(153,204,255)" text-rendering="geometricPrecision" shape-rendering="geometricPrecision" transform="matrix(1,0,0,1,-73,-101)" stroke="rgb(153,204,255)">
      <rect x="360" width="122" height="26" y="143" clip-path="url(#clipPath2)" stroke="none"/>
      <rect x="359" y="142" clip-path="url(#clipPath2)" fill="rgb(218,255,255)" width="1" height="28" stroke="none"/>
      <rect x="360" y="142" clip-path="url(#clipPath2)" fill="rgb(218,255,255)" width="122" height="1" stroke="none"/>
      <rect x="360" y="169" clip-path="url(#clipPath2)" fill="rgb(107,142,178)" width="123" height="1" stroke="none"/>
      <rect x="482" y="142" clip-path="url(#clipPath2)" fill="rgb(107,142,178)" width="1" height="27" stroke="none"/>
    </g>
    <g font-size="13px" stroke-linecap="butt" transform="matrix(1,0,0,1,-73,-101)" text-rendering="geometricPrecision" font-family="sans-serif" shape-rendering="geometricPrecision" font-weight="bold" stroke-miterlimit="1.45">
      <text x="371.7471" xml:space="preserve" y="159.5684" clip-path="url(#clipPath7)" stroke="none">DigitalAddress</text>
    </g>
    <g fill="rgb(153,204,255)" text-rendering="geometricPrecision" shape-rendering="geometricPrecision" transform="matrix(1,0,0,1,-73,-101)" stroke="rgb(153,204,255)">
      <rect x="95" width="122" height="26" y="275" clip-path="url(#clipPath2)" stroke="none"/>
      <rect x="94" y="274" clip-path="url(#clipPath2)" fill="rgb(218,255,255)" width="1" height="28" stroke="none"/>
      <rect x="95" y="274" clip-path="url(#clipPath2)" fill="rgb(218,255,255)" width="122" height="1" stroke="none"/>
      <rect x="95" y="301" clip-path="url(#clipPath2)" fill="rgb(107,142,178)" width="123" height="1" stroke="none"/>
      <rect x="217" y="274" clip-path="url(#clipPath2)" fill="rgb(107,142,178)" width="1" height="27" stroke="none"/>
    </g>
    <g font-size="13px" stroke-linecap="butt" transform="matrix(1,0,0,1,-73,-101)" text-rendering="geometricPrecision" font-family="sans-serif" shape-rendering="geometricPrecision" font-weight="bold" stroke-miterlimit="1.45">
      <text x="94.8943" xml:space="preserve" y="291.5684" clip-path="url(#clipPath8)" stroke="none">EntityRelationship</text>
    </g>
    <g fill="rgb(153,204,255)" text-rendering="geometricPrecision" shape-rendering="geometricPrecision" transform="matrix(1,0,0,1,-73,-101)" stroke="rgb(153,204,255)">
      <rect x="95" width="122" height="26" y="344" clip-path="url(#clipPath2)" stroke="none"/>
      <rect x="94" y="343" clip-path="url(#clipPath2)" fill="rgb(218,255,255)" width="1" height="28" stroke="none"/>
      <rect x="95" y="343" clip-path="url(#clipPath2)" fill="rgb(218,255,255)" width="122" height="1" stroke="none"/>
      <rect x="95" y="370" clip-path="url(#clipPath2)" fill="rgb(107,142,178)" width="123" height="1" stroke="none"/>
      <rect x="217" y="343" clip-path="url(#clipPath2)" fill="rgb(107,142,178)" width="1" height="27" stroke="none"/>
    </g>
    <g font-size="13px" stroke-linecap="butt" transform="matrix(1,0,0,1,-73,-101)" text-rendering="geometricPrecision" font-family="sans-serif" shape-rendering="geometricPrecision" font-weight="bold" stroke-miterlimit="1.45">
      <text x="122.0972" xml:space="preserve" y="360.5684" clip-path="url(#clipPath9)" stroke="none">EntityRole</text>
    </g>
    <g fill="rgb(153,204,255)" text-rendering="geometricPrecision" shape-rendering="geometricPrecision" transform="matrix(1,0,0,1,-73,-101)" stroke="rgb(153,204,255)">
      <rect x="680" width="152" height="26" y="275" clip-path="url(#clipPath2)" stroke="none"/>
      <rect x="679" y="274" clip-path="url(#clipPath2)" fill="rgb(218,255,255)" width="1" height="28" stroke="none"/>
      <rect x="680" y="274" clip-path="url(#clipPath2)" fill="rgb(218,255,255)" width="152" height="1" stroke="none"/>
      <rect x="680" y="301" clip-path="url(#clipPath2)" fill="rgb(107,142,178)" width="153" height="1" stroke="none"/>
      <rect x="832" y="274" clip-path="url(#clipPath2)" fill="rgb(107,142,178)" width="1" height="27" stroke="none"/>
    </g>
    <g font-size="13px" stroke-linecap="butt" transform="matrix(1,0,0,1,-73,-101)" text-rendering="geometricPrecision" font-family="sans-serif" shape-rendering="geometricPrecision" font-weight="bold" stroke-miterlimit="1.45">
      <text x="693.2431" xml:space="preserve" y="291.5684" clip-path="url(#clipPath10)" stroke="none">ContactMechanism</text>
    </g>
    <g fill="rgb(153,204,255)" text-rendering="geometricPrecision" shape-rendering="geometricPrecision" transform="matrix(1,0,0,1,-73,-101)" stroke="rgb(153,204,255)">
      <rect x="703" width="97" height="26" y="333" clip-path="url(#clipPath2)" stroke="none"/>
      <rect x="702" y="332" clip-path="url(#clipPath2)" fill="rgb(218,255,255)" width="1" height="28" stroke="none"/>
      <rect x="703" y="332" clip-path="url(#clipPath2)" fill="rgb(218,255,255)" width="97" height="1" stroke="none"/>
      <rect x="703" y="359" clip-path="url(#clipPath2)" fill="rgb(107,142,178)" width="98" height="1" stroke="none"/>
      <rect x="800" y="332" clip-path="url(#clipPath2)" fill="rgb(107,142,178)" width="1" height="27" stroke="none"/>
    </g>
    <g font-size="13px" stroke-linecap="butt" transform="matrix(1,0,0,1,-73,-101)" text-rendering="geometricPrecision" font-family="sans-serif" shape-rendering="geometricPrecision" font-weight="bold" stroke-miterlimit="1.45">
      <text x="725.8999" xml:space="preserve" y="349.5684" clip-path="url(#clipPath11)" stroke="none">Contact</text>
    </g>
    <g fill="rgb(153,204,255)" text-rendering="geometricPrecision" shape-rendering="geometricPrecision" transform="matrix(1,0,0,1,-73,-101)" stroke="rgb(153,204,255)">
      <rect x="611" width="97" height="26" y="391" clip-path="url(#clipPath2)" stroke="none"/>
      <rect x="610" y="390" clip-path="url(#clipPath2)" fill="rgb(218,255,255)" width="1" height="28" stroke="none"/>
      <rect x="611" y="390" clip-path="url(#clipPath2)" fill="rgb(218,255,255)" width="97" height="1" stroke="none"/>
      <rect x="611" y="417" clip-path="url(#clipPath2)" fill="rgb(107,142,178)" width="98" height="1" stroke="none"/>
      <rect x="708" y="390" clip-path="url(#clipPath2)" fill="rgb(107,142,178)" width="1" height="27" stroke="none"/>
    </g>
    <g font-size="13px" stroke-linecap="butt" transform="matrix(1,0,0,1,-73,-101)" text-rendering="geometricPrecision" font-family="sans-serif" shape-rendering="geometricPrecision" font-weight="bold" stroke-miterlimit="1.45">
      <text x="631.9861" xml:space="preserve" y="407.5684" clip-path="url(#clipPath12)" stroke="none">Address</text>
    </g>
    <g fill="rgb(153,204,255)" text-rendering="geometricPrecision" shape-rendering="geometricPrecision" transform="matrix(1,0,0,1,-73,-101)" stroke="rgb(153,204,255)">
      <rect x="723" width="97" height="26" y="391" clip-path="url(#clipPath2)" stroke="none"/>
      <rect x="722" y="390" clip-path="url(#clipPath2)" fill="rgb(218,255,255)" width="1" height="28" stroke="none"/>
      <rect x="723" y="390" clip-path="url(#clipPath2)" fill="rgb(218,255,255)" width="97" height="1" stroke="none"/>
      <rect x="723" y="417" clip-path="url(#clipPath2)" fill="rgb(107,142,178)" width="98" height="1" stroke="none"/>
      <rect x="820" y="390" clip-path="url(#clipPath2)" fill="rgb(107,142,178)" width="1" height="27" stroke="none"/>
    </g>
    <g font-size="13px" stroke-linecap="butt" transform="matrix(1,0,0,1,-73,-101)" text-rendering="geometricPrecision" font-family="sans-serif" shape-rendering="geometricPrecision" font-weight="bold" stroke-miterlimit="1.45">
      <text x="751.0161" xml:space="preserve" y="407.5684" clip-path="url(#clipPath13)" stroke="none">Phone</text>
    </g>
    <g fill="rgb(153,204,255)" text-rendering="geometricPrecision" shape-rendering="geometricPrecision" transform="matrix(1,0,0,1,-73,-101)" stroke="rgb(153,204,255)">
      <rect x="835" width="97" height="26" y="391" clip-path="url(#clipPath2)" stroke="none"/>
      <rect x="834" y="390" clip-path="url(#clipPath2)" fill="rgb(218,255,255)" width="1" height="28" stroke="none"/>
      <rect x="835" y="390" clip-path="url(#clipPath2)" fill="rgb(218,255,255)" width="97" height="1" stroke="none"/>
      <rect x="835" y="417" clip-path="url(#clipPath2)" fill="rgb(107,142,178)" width="98" height="1" stroke="none"/>
      <rect x="932" y="390" clip-path="url(#clipPath2)" fill="rgb(107,142,178)" width="1" height="27" stroke="none"/>
    </g>
    <g font-size="13px" stroke-linecap="butt" transform="matrix(1,0,0,1,-73,-101)" text-rendering="geometricPrecision" font-family="sans-serif" shape-rendering="geometricPrecision" font-weight="bold" stroke-miterlimit="1.45">
      <text x="865.2441" xml:space="preserve" y="407.5684" clip-path="url(#clipPath14)" stroke="none">Email</text>
    </g>
    <g fill="rgb(153,204,255)" text-rendering="geometricPrecision" shape-rendering="geometricPrecision" transform="matrix(1,0,0,1,-73,-101)" stroke="rgb(153,204,255)">
      <rect x="89" width="98" height="26" y="501" clip-path="url(#clipPath2)" stroke="none"/>
      <rect x="88" y="500" clip-path="url(#clipPath2)" fill="rgb(218,255,255)" width="1" height="28" stroke="none"/>
      <rect x="89" y="500" clip-path="url(#clipPath2)" fill="rgb(218,255,255)" width="98" height="1" stroke="none"/>
      <rect x="89" y="527" clip-path="url(#clipPath2)" fill="rgb(107,142,178)" width="99" height="1" stroke="none"/>
      <rect x="187" y="500" clip-path="url(#clipPath2)" fill="rgb(107,142,178)" width="1" height="27" stroke="none"/>
    </g>
    <g font-size="13px" stroke-linecap="butt" transform="matrix(1,0,0,1,-73,-101)" text-rendering="geometricPrecision" font-family="sans-serif" shape-rendering="geometricPrecision" font-weight="bold" stroke-miterlimit="1.45">
      <text x="117.4622" xml:space="preserve" y="517.5684" clip-path="url(#clipPath15)" stroke="none">Issuer</text>
    </g>
    <g fill="rgb(153,204,255)" text-rendering="geometricPrecision" shape-rendering="geometricPrecision" transform="matrix(1,0,0,1,-73,-101)" stroke="rgb(153,204,255)">
      <rect x="209" width="122" height="26" y="501" clip-path="url(#clipPath2)" stroke="none"/>
      <rect x="208" y="500" clip-path="url(#clipPath2)" fill="rgb(218,255,255)" width="1" height="28" stroke="none"/>
      <rect x="209" y="500" clip-path="url(#clipPath2)" fill="rgb(218,255,255)" width="122" height="1" stroke="none"/>
      <rect x="209" y="527" clip-path="url(#clipPath2)" fill="rgb(107,142,178)" width="123" height="1" stroke="none"/>
      <rect x="331" y="500" clip-path="url(#clipPath2)" fill="rgb(107,142,178)" width="1" height="27" stroke="none"/>
    </g>
    <g font-size="13px" stroke-linecap="butt" transform="matrix(1,0,0,1,-73,-101)" text-rendering="geometricPrecision" font-family="sans-serif" shape-rendering="geometricPrecision" font-weight="bold" stroke-miterlimit="1.45">
      <text x="216.01" xml:space="preserve" y="517.5684" clip-path="url(#clipPath16)" stroke="none">Service Provider</text>
    </g>
    <g fill="rgb(153,204,255)" text-rendering="geometricPrecision" shape-rendering="geometricPrecision" transform="matrix(1,0,0,1,-73,-101)" stroke="rgb(153,204,255)">
      <rect x="347" width="134" height="26" y="501" clip-path="url(#clipPath2)" stroke="none"/>
      <rect x="346" y="500" clip-path="url(#clipPath2)" fill="rgb(218,255,255)" width="1" height="28" stroke="none"/>
      <rect x="347" y="500" clip-path="url(#clipPath2)" fill="rgb(218,255,255)" width="134" height="1" stroke="none"/>
      <rect x="347" y="527" clip-path="url(#clipPath2)" fill="rgb(107,142,178)" width="135" height="1" stroke="none"/>
      <rect x="481" y="500" clip-path="url(#clipPath2)" fill="rgb(107,142,178)" width="1" height="27" stroke="none"/>
    </g>
    <g font-size="13px" stroke-linecap="butt" transform="matrix(1,0,0,1,-73,-101)" text-rendering="geometricPrecision" font-family="sans-serif" shape-rendering="geometricPrecision" font-weight="bold" stroke-miterlimit="1.45">
      <text x="353.929" xml:space="preserve" y="517.5684" clip-path="url(#clipPath17)" stroke="none">RegionalDirectory</text>
    </g>
    <g fill="rgb(153,204,255)" text-rendering="geometricPrecision" shape-rendering="geometricPrecision" transform="matrix(1,0,0,1,-73,-101)" stroke="rgb(153,204,255)">
      <rect x="580" width="122" height="26" y="143" clip-path="url(#clipPath2)" stroke="none"/>
      <rect x="579" y="142" clip-path="url(#clipPath2)" fill="rgb(218,255,255)" width="1" height="28" stroke="none"/>
      <rect x="580" y="142" clip-path="url(#clipPath2)" fill="rgb(218,255,255)" width="122" height="1" stroke="none"/>
      <rect x="580" y="169" clip-path="url(#clipPath2)" fill="rgb(107,142,178)" width="123" height="1" stroke="none"/>
      <rect x="702" y="142" clip-path="url(#clipPath2)" fill="rgb(107,142,178)" width="1" height="27" stroke="none"/>
    </g>
    <g font-size="13px" stroke-linecap="butt" transform="matrix(1,0,0,1,-73,-101)" text-rendering="geometricPrecision" font-family="sans-serif" shape-rendering="geometricPrecision" font-weight="bold" stroke-miterlimit="1.45">
      <text x="599.0928" xml:space="preserve" y="159.5684" clip-path="url(#clipPath18)" stroke="none">TrustAnchor</text>
      <path fill="none" d="M293.5836 389.9814 L392.189 311.3682" clip-path="url(#clipPath2)"/>
    </g>
    <g stroke-linecap="butt" transform="matrix(1,0,0,1,-73,-101)" fill="white" text-rendering="geometricPrecision" shape-rendering="geometricPrecision" stroke="white" stroke-miterlimit="1.45">
      <path d="M403.9177 302.0175 L387.6668 307.3001 L395.1474 316.6831 Z" stroke="none" clip-path="url(#clipPath2)"/>
      <path fill="none" d="M403.9177 302.0175 L387.6668 307.3001 L395.1474 316.6831 Z" clip-path="url(#clipPath2)" stroke="black"/>
      <path fill="none" d="M414.9064 389.9814 L419.6275 316.9613" clip-path="url(#clipPath2)" stroke="black"/>
      <path d="M420.5953 301.9926 L413.5755 317.5721 L425.5505 318.3463 Z" clip-path="url(#clipPath2)" stroke="none"/>
      <path fill="none" d="M420.5953 301.9926 L413.5755 317.5721 L425.5505 318.3463 Z" clip-path="url(#clipPath2)" stroke="black"/>
      <path fill="none" d="M512.4921 389.9814 L443.9934 313.21" clip-path="url(#clipPath2)" stroke="black"/>
      <path d="M434.007 302.0175 L440.1822 317.9507 L449.1361 309.9616 Z" clip-path="url(#clipPath2)" stroke="none"/>
      <path fill="none" d="M434.007 302.0175 L440.1822 317.9507 L449.1361 309.9616 Z" clip-path="url(#clipPath2)" stroke="black"/>
      <path fill="none" d="M421.5 273.9814 L421.5 170.0276" clip-path="url(#clipPath2)" stroke="black"/>
      <text x="380.1152" y="226.5352" clip-path="url(#clipPath2)" fill="black" font-family="sans-serif" stroke="none" xml:space="preserve">1..1</text>
      <path fill="none" d="M344.009 288 L218.0353 288" clip-path="url(#clipPath2)" stroke="black"/>
      <path d="M351.009 288 L344.009 293 L337.009 288 L344.009 283 Z" clip-path="url(#clipPath2)" stroke="none"/>
      <path fill="none" d="M351.009 288 L344.009 293 L337.009 288 L344.009 283 Z" clip-path="url(#clipPath2)" stroke="black"/>
      <text x="260.6508" y="262.5352" clip-path="url(#clipPath2)" fill="black" font-family="sans-serif" stroke="none" xml:space="preserve">1..*</text>
      <path fill="none" d="M156 301.9819 L156 343.0037" clip-path="url(#clipPath2)" stroke="black"/>
      <text x="114.6152" y="327.0352" clip-path="url(#clipPath2)" fill="black" font-family="sans-serif" stroke="none" xml:space="preserve">1..1</text>
      <path fill="none" d="M499.0335 288 L679.4773 288" clip-path="url(#clipPath2)" stroke="black"/>
      <path d="M492.0335 288 L499.0335 283 L506.0335 288 L499.0335 293 Z" clip-path="url(#clipPath2)" stroke="none"/>
      <path fill="none" d="M492.0335 288 L499.0335 283 L506.0335 288 L499.0335 293 Z" clip-path="url(#clipPath2)" stroke="black"/>
      <text x="575.2488" y="262.5352" clip-path="url(#clipPath2)" fill="black" font-family="sans-serif" stroke="none" xml:space="preserve">1..*</text>
      <path fill="none" d="M751.5 302.0186 L751.5 332.041" clip-path="url(#clipPath2)" stroke="black"/>
      <text x="770.1152" y="321.88" clip-path="url(#clipPath2)" fill="black" font-family="sans-serif" stroke="none" xml:space="preserve">1..1</text>
      <path fill="none" d="M681.7139 389.9956 L716.6281 367.9844" clip-path="url(#clipPath2)" stroke="black"/>
      <path d="M729.317 359.9849 L712.5824 363.4422 L718.982 373.5933 Z" clip-path="url(#clipPath2)" stroke="none"/>
      <path fill="none" d="M729.317 359.9849 L712.5824 363.4422 L718.982 373.5933 Z" clip-path="url(#clipPath2)" stroke="black"/>
      <path fill="none" d="M766.666 389.9814 L761.2033 374.1396" clip-path="url(#clipPath2)" stroke="black"/>
      <path d="M756.3134 359.959 L755.8571 377.0409 L767.2015 373.129 Z" clip-path="url(#clipPath2)" stroke="none"/>
      <path fill="none" d="M756.3134 359.959 L755.8571 377.0409 L767.2015 373.129 Z" clip-path="url(#clipPath2)" stroke="black"/>
      <path fill="none" d="M851.6279 389.9956 L797.085 366.0298" clip-path="url(#clipPath2)" stroke="black"/>
      <path d="M783.3522 359.9957 L795.5869 371.9252 L800.4142 360.9389 Z" clip-path="url(#clipPath2)" stroke="none"/>
      <path fill="none" d="M783.3522 359.9957 L795.5869 371.9252 L800.4142 360.9389 Z" clip-path="url(#clipPath2)" stroke="black"/>
      <path fill="none" d="M155.5532 500.0083 L246.715 427.3431" clip-path="url(#clipPath2)" stroke="black"/>
      <path d="M258.4446 417.9934 L242.1932 423.2746 L249.6729 432.6582 Z" clip-path="url(#clipPath2)" stroke="none"/>
      <path fill="none" d="M258.4446 417.9934 L242.1932 423.2746 L249.6729 432.6582 Z" clip-path="url(#clipPath2)" stroke="black"/>
      <path fill="none" d="M270.7632 500.0083 L274.4185 432.9946" clip-path="url(#clipPath2)" stroke="black"/>
      <path d="M275.2354 418.0168 L268.3729 433.6663 L280.3551 434.3199 Z" clip-path="url(#clipPath2)" stroke="none"/>
      <path fill="none" d="M275.2354 418.0168 L268.3729 433.6663 L280.3551 434.3199 Z" clip-path="url(#clipPath2)" stroke="black"/>
      <path fill="none" d="M396.4468 500.0083 L305.2849 427.3431" clip-path="url(#clipPath2)" stroke="black"/>
      <path d="M293.5554 417.9934 L302.3271 432.6582 L309.8068 423.2746 Z" clip-path="url(#clipPath2)" stroke="none"/>
      <path fill="none" d="M293.5554 417.9934 L302.3271 432.6582 L309.8068 423.2746 Z" clip-path="url(#clipPath2)" stroke="black"/>
      <path fill="none" d="M483.4755 156 L578.967 156" clip-path="url(#clipPath2)" stroke="black"/>
      <text x="519.8652" y="130.5352" clip-path="url(#clipPath2)" fill="black" font-family="sans-serif" stroke="none" xml:space="preserve">1..1</text>
    </g>
  </g>
</svg>
